<?xml version="1.0" encoding="UTF-8"?>
<svg width="300" height="300" viewBox="0 0 300 300" xmlns="http://www.w3.org/2000/svg">
  <!-- Face mesh wireframe -->
  <g fill="none" stroke="#4a90e2" stroke-width="1.5">
    <!-- Basic face outline -->
    <path d="M150 50 C 210 50, 250 110, 250 170 C 250 230, 210 270, 150 270 C 90 270, 50 230, 50 170 C 50 110, 90 50, 150 50 Z" />
    
    <!-- Eyes -->
    <ellipse cx="120" cy="130" rx="20" ry="15" />
    <ellipse cx="180" cy="130" rx="20" ry="15" />
    
    <!-- Nose -->
    <path d="M150 140 L150 180 M135 170 L150 180 L165 170" />
    
    <!-- Mouth -->
    <path d="M120 200 C 135 220, 165 220, 180 200" />
    
    <!-- Eyebrows -->
    <path d="M100 115 C 115 105, 130 110, 140 115" />
    <path d="M160 115 C 170 110, 185 105, 200 115" />
    
    <!-- Mesh lines -->
    <!-- Horizontal mesh lines -->
    <path d="M70 110 L230 110" stroke-opacity="0.4" />
    <path d="M70 140 L230 140" stroke-opacity="0.4" />
    <path d="M70 170 L230 170" stroke-opacity="0.4" />
    <path d="M70 200 L230 200" stroke-opacity="0.4" />
    <path d="M70 230 L230 230" stroke-opacity="0.4" />
    
    <!-- Vertical mesh lines -->
    <path d="M90 70 L90 250" stroke-opacity="0.4" />
    <path d="M120 70 L120 250" stroke-opacity="0.4" />
    <path d="M150 70 L150 250" stroke-opacity="0.4" />
    <path d="M180 70 L180 250" stroke-opacity="0.4" />
    <path d="M210 70 L210 250" stroke-opacity="0.4" />
    
    <!-- Diagonal mesh lines -->
    <path d="M90 90 L210 210" stroke-opacity="0.3" />
    <path d="M90 210 L210 90" stroke-opacity="0.3" />
  </g>
  
  <!-- Mesh points -->
  <g fill="#4a90e2">
    <!-- Face contour points -->
    <circle cx="90" cy="120" r="2" />
    <circle cx="80" cy="150" r="2" />
    <circle cx="80" cy="180" r="2" />
    <circle cx="90" cy="210" r="2" />
    <circle cx="120" cy="240" r="2" />
    <circle cx="150" cy="250" r="2" />
    <circle cx="180" cy="240" r="2" />
    <circle cx="210" cy="210" r="2" />
    <circle cx="220" cy="180" r="2" />
    <circle cx="220" cy="150" r="2" />
    <circle cx="210" cy="120" r="2" />
    <circle cx="180" cy="90" r="2" />
    <circle cx="150" cy="80" r="2" />
    <circle cx="120" cy="90" r="2" />
    
    <!-- Eye points -->
    <circle cx="110" cy="130" r="1.5" />
    <circle cx="120" cy="125" r="1.5" />
    <circle cx="130" cy="130" r="1.5" />
    <circle cx="120" cy="135" r="1.5" />
    
    <circle cx="170" cy="130" r="1.5" />
    <circle cx="180" cy="125" r="1.5" />
    <circle cx="190" cy="130" r="1.5" />
    <circle cx="180" cy="135" r="1.5" />
    
    <!-- Nose points -->
    <circle cx="150" cy="150" r="1.5" />
    <circle cx="145" cy="160" r="1.5" />
    <circle cx="150" cy="170" r="1.5" />
    <circle cx="155" cy="160" r="1.5" />
    <circle cx="140" cy="170" r="1.5" />
    <circle cx="160" cy="170" r="1.5" />
    
    <!-- Mouth points -->
    <circle cx="130" cy="200" r="1.5" />
    <circle cx="150" cy="195" r="1.5" />
    <circle cx="170" cy="200" r="1.5" />
    <circle cx="150" cy="205" r="1.5" />
  </g>
</svg>